<?xml version="1.0" encoding="iso-8859-1"?>
<!-- Generator: Adobe Illustrator 19.0.0, SVG Export Plug-In . SVG Version: 6.00 Build 0)  -->
<svg version="1.1" id="Layer_1" xmlns="http://www.w3.org/2000/svg" xmlns:xlink="http://www.w3.org/1999/xlink" x="0px" y="0px"
	 viewBox="0 0 511.999 511.999" style="enable-background:new 0 0 511.999 511.999;" xml:space="preserve">
<g>
	<g>
		<path d="M404.566,333.843H127.718c-5.309,0-9.613,4.304-9.613,9.613c0,5.309,4.304,9.613,9.613,9.613h276.848
			c5.309,0,9.613-4.304,9.613-9.613C414.179,338.147,409.875,333.843,404.566,333.843z"/>
	</g>
</g>
<g>
	<g>
		<path d="M404.566,409.463H127.718c-5.309,0-9.613,4.304-9.613,9.613s4.304,9.613,9.613,9.613h276.848
			c5.309,0,9.613-4.304,9.613-9.613S409.875,409.463,404.566,409.463z"/>
	</g>
</g>
<g>
	<g>
		<path d="M466.348,183.883H129.553l321.759-99.508c5.073-1.569,7.912-6.952,6.343-12.024l-20.28-65.58
			c-0.752-2.435-2.443-4.473-4.699-5.661c-2.255-1.189-4.89-1.436-7.325-0.682L42.813,118.734
			c-5.073,1.569-7.912,6.952-6.343,12.024l19.852,64.189v307.439c0,5.309,4.304,9.613,9.613,9.613h400.414
			c5.309,0,9.613-4.304,9.613-9.613V193.495C475.961,188.186,471.657,183.883,466.348,183.883z M412.263,203.108l-49.417,49.417
			h-62.056l49.417-49.417H412.263z M323.018,203.108L273.6,252.525h-62.056l49.417-49.417H323.018z M233.774,203.108l-49.417,49.417
			H122.3l49.417-49.417H233.774z M144.529,203.108l-49.417,49.417H75.547v-49.417H144.529z M421.849,21.638l14.6,47.21l-18.69,5.78
			l-61.812-32.61L421.849,21.638z M329.972,50.05l61.812,32.61l-59.285,18.335l-61.812-32.61L329.972,50.05z M244.712,76.419
			l61.812,32.61l-59.287,18.334l-61.811-32.61L244.712,76.419z M159.45,102.786l61.811,32.61l-59.285,18.335l-61.81-32.61
			L159.45,102.786z M57.677,134.261l16.513-5.106l61.812,32.61l-63.724,19.707L57.677,134.261z M456.735,492.773H75.547V271.751
			h381.188V492.773z M456.735,252.525h-66.702l49.417-49.417h17.285V252.525z"/>
	</g>
</g>
<g>
</g>
<g>
</g>
<g>
</g>
<g>
</g>
<g>
</g>
<g>
</g>
<g>
</g>
<g>
</g>
<g>
</g>
<g>
</g>
<g>
</g>
<g>
</g>
<g>
</g>
<g>
</g>
<g>
</g>
</svg>
