<?xml version="1.0" encoding="iso-8859-1"?>
<!-- Generator: Adobe Illustrator 18.0.0, SVG Export Plug-In . SVG Version: 6.00 Build 0)  -->
<!DOCTYPE svg PUBLIC "-//W3C//DTD SVG 1.1//EN" "http://www.w3.org/Graphics/SVG/1.1/DTD/svg11.dtd">
<svg version="1.1" id="Capa_1" xmlns="http://www.w3.org/2000/svg" xmlns:xlink="http://www.w3.org/1999/xlink" x="0px" y="0px"
	 viewBox="0 0 42 42" style="enable-background:new 0 0 42 42;" xml:space="preserve">
<path d="M38.979,3.295c0.004-0.024,0.003-0.05,0.005-0.075C38.994,3.148,39,3.075,39,3c0-1.088-0.959-1.83-5.862-2.407
	C29.889,0.211,25.579,0,21,0S12.111,0.211,8.862,0.593C3.959,1.17,3,1.912,3,3c0,0.074,0.006,0.146,0.015,0.217
	C3.018,3.243,3.017,3.27,3.021,3.295l1.261,15.116c0,0.004-0.001,0.008,0,0.012L5.62,34.476c0.001,0.007,0.004,0.013,0.005,0.019
	L6,39c0,1.056,0.915,1.788,5.591,2.405C14.409,41.777,17.927,42,21,42s6.591-0.223,9.409-0.595c4.676-0.617,5.591-1.35,5.587-2.322
	l1.727-20.722c0.006-0.05,0.011-0.1,0.013-0.15L38.979,3.295z M6.695,23.296l-0.287-3.439c0.465,0.125,1.028,0.242,1.702,0.352
	c0.041,0.007,0.083,0.014,0.125,0.021c0.09,0.014,0.177,0.029,0.27,0.043c-0.291,0.986-0.079,2.094,0.672,2.898l3.205,3.43
	c0.545,0.584,1.288,0.921,2.09,0.948c0.035,0.001,0.07,0.002,0.105,0.002c0.009,0,0.017-0.002,0.026-0.002
	c0.048,0.684,0.311,1.327,0.784,1.833l3.205,3.43c0.59,0.632,1.391,0.951,2.193,0.951c0.734,0,1.469-0.268,2.046-0.807l3.43-3.205
	c0.584-0.545,0.92-1.288,0.948-2.091c0.027-0.802-0.258-1.565-0.804-2.149l-0.48-0.514c0.528-0.111,1.017-0.359,1.42-0.735
	l3.43-3.205c0.162-0.151,0.299-0.317,0.42-0.492c2.021-0.2,3.427-0.434,4.395-0.693l-1.147,13.763
	c-2.637,0.705-8.383,1.252-13.443,1.252s-10.806-0.547-13.443-1.252L6.695,23.296z M36.83,5.008l-0.953,11.447
	c-1.169-0.35-3.071-0.655-6.129-0.892l-2.033-2.176c-1.13-1.208-3.032-1.274-4.24-0.144l-2.154,2.012l-0.24-0.001
	c-1.621,0-3.222,0.032-4.772,0.09c-1.016-0.595-2.305-0.546-3.277,0.169c-3.546,0.245-5.655,0.589-6.907,0.965L5.171,5.008
	C7.501,5.676,12.136,6,21,6C29.865,6,34.499,5.676,36.83,5.008z M9.294,18.364c-0.023-0.003-0.047-0.006-0.07-0.009
	c-0.568-0.078-1.038-0.156-1.424-0.231c0.693-0.133,1.615-0.271,2.811-0.398l-0.499,0.467L9.85,18.436
	c-0.003,0-0.006-0.001-0.008-0.001C9.649,18.412,9.468,18.388,9.294,18.364z M14.117,17.188c0.193-0.18,0.438-0.269,0.683-0.269
	c0.268,0,0.534,0.106,0.731,0.316l1.591,1.703c-1.714-0.053-3.261-0.138-4.618-0.244l0.548-0.512L14.117,17.188z M22.396,16.987
	C22.396,16.987,22.396,16.987,22.396,16.987l2.444-2.284c0.193-0.18,0.438-0.269,0.683-0.269c0.268,0,0.534,0.106,0.73,0.316
	l3.205,3.431c0.082,0.087,0.136,0.189,0.18,0.293c0.016,0.04,0.029,0.081,0.04,0.122c0.009,0.032,0.01,0.065,0.016,0.098
	c-2.274,0.18-5.129,0.303-8.528,0.305c-0.003-0.007-0.009-0.012-0.012-0.019c-0.003-0.008-0.001-0.017-0.004-0.025
	c-0.12-0.36-0.034-0.772,0.26-1.047L22.396,16.987z M31.501,17.729c1.174,0.127,2.078,0.266,2.756,0.397
	c-0.614,0.12-1.444,0.25-2.558,0.374c-0.001-0.006-0.004-0.011-0.004-0.017c-0.031-0.248-0.093-0.491-0.186-0.727
	C31.505,17.748,31.505,17.738,31.501,17.729z M19.391,17.351c-0.029,0.061-0.052,0.123-0.077,0.185
	c-0.041,0.104-0.077,0.21-0.106,0.317c-0.019,0.069-0.036,0.138-0.05,0.208c-0.007,0.034-0.019,0.067-0.024,0.102l-0.823-0.881
	c0.37-0.008,0.743-0.015,1.116-0.019C19.413,17.292,19.405,17.322,19.391,17.351z M10.586,20.532
	c2.905,0.297,6.198,0.407,8.341,0.446c0.148,0.372,0.069,0.811-0.24,1.101l-3.431,3.204c-0.193,0.181-0.446,0.272-0.716,0.267
	c-0.269-0.009-0.516-0.121-0.697-0.314l-3.205-3.43C10.303,21.446,10.301,20.913,10.586,20.532z M16.896,26.603l3.43-3.205
	c0.185-0.173,0.426-0.267,0.681-0.267c0.012,0,0.024,0,0.036,0c0.269,0.01,0.516,0.121,0.697,0.314l3.205,3.43
	c0.376,0.403,0.355,1.037-0.048,1.414l-3.43,3.205c-0.194,0.181-0.452,0.277-0.716,0.266c-0.269-0.009-0.516-0.121-0.697-0.314
	l-3.205-3.43C16.473,27.612,16.494,26.979,16.896,26.603z M24.567,22.752l-1.653-1.769c1.345-0.022,3.228-0.072,5.211-0.187
	L25.98,22.8C25.577,23.176,24.942,23.154,24.567,22.752z M21,2c7.015,0,12.196,0.491,14.668,1C33.196,3.509,28.015,4,21,4
	S8.804,3.509,6.332,3C8.804,2.491,13.985,2,21,2z M21,40c-5.665,0-11.713-0.754-13.029-1.395l-0.24-2.875
	c3.275,0.73,8.935,1.155,13.269,1.155c4.335,0,9.997-0.426,13.272-1.156l-0.239,2.875C32.724,39.244,26.67,40,21,40z"/>
<g>
</g>
<g>
</g>
<g>
</g>
<g>
</g>
<g>
</g>
<g>
</g>
<g>
</g>
<g>
</g>
<g>
</g>
<g>
</g>
<g>
</g>
<g>
</g>
<g>
</g>
<g>
</g>
<g>
</g>
</svg>
