<?xml version="1.0" encoding="iso-8859-1"?>
<!-- Generator: Adobe Illustrator 19.0.0, SVG Export Plug-In . SVG Version: 6.00 Build 0)  -->
<svg version="1.1" id="Layer_1" xmlns="http://www.w3.org/2000/svg" xmlns:xlink="http://www.w3.org/1999/xlink" x="0px" y="0px"
	 viewBox="0 0 512 512" style="enable-background:new 0 0 512 512;" xml:space="preserve">
<g>
	<g>
		<path d="M414.686,388.699V70.22c0-19.207-15.625-34.834-34.834-34.834h-3.721l-8.066-16.131C362.128,7.378,350.19,0,336.91,0
			h-161.82c-13.279,0-25.217,7.378-31.156,19.256l-8.065,16.131h-3.722c-19.207,0-34.834,15.626-34.834,34.834v318.479
			c0,19.207,15.626,34.834,34.834,34.834h10.845l-44.539,75.978c-2.317,3.951-0.991,9.032,2.96,11.349
			c1.318,0.773,2.762,1.14,4.187,1.14c2.846,0,5.619-1.467,7.162-4.1l49.458-84.367h187.562l49.457,84.367
			c1.544,2.634,4.315,4.1,7.162,4.1c1.425,0,2.868-0.367,4.187-1.14c3.951-2.317,5.277-7.398,2.96-11.349l-44.539-75.978h10.845
			C399.061,423.533,414.686,407.906,414.686,388.699z M212.711,406.945l4.773-28.638c0.759-4.552,4.658-7.855,9.271-7.855h58.49
			c4.613,0,8.513,3.303,9.271,7.855l4.774,28.638H212.711z M316.105,406.945l-5.227-31.365
			c-2.097-12.583-12.877-21.715-25.633-21.715h-58.49c-12.756,0-23.536,9.132-25.633,21.715l-5.227,31.365h-63.748
			c-10.061,0-18.246-8.185-18.246-18.246V70.22c0-10.061,8.185-18.246,18.246-18.246h168.089c4.58,0,8.294-3.713,8.294-8.294
			c0-4.58-3.713-8.294-8.294-8.294H154.414l4.357-8.713c3.111-6.221,9.364-10.086,16.32-10.086h161.82
			c6.956,0,13.209,3.865,16.32,10.086l4.357,8.713h-21.965c-4.58,0-8.294,3.713-8.294,8.294c0,4.58,3.713,8.294,8.294,8.294h44.23
			c10.061,0,18.246,8.185,18.246,18.246v318.479c0,10.061-8.185,18.246-18.246,18.246H316.105z"/>
	</g>
</g>
<g>
	<g>
		<path d="M353.312,477.718H158.686c-4.58,0-8.294,3.713-8.294,8.294s3.713,8.294,8.294,8.294h194.626
			c4.58,0,8.294-3.713,8.294-8.294S357.894,477.718,353.312,477.718z"/>
	</g>
</g>
<g>
	<g>
		<path d="M335.619,442.332H176.38c-4.58,0-8.294,3.713-8.294,8.294s3.713,8.294,8.294,8.294h159.239
			c4.58,0,8.294-3.713,8.294-8.294S340.199,442.332,335.619,442.332z"/>
	</g>
</g>
<g>
	<g>
		<path d="M362.159,106.16H149.84c-9.452,0-17.14,7.689-17.14,17.14v88.466c0,9.451,7.69,17.14,17.14,17.14h212.319
			c9.451,0,17.14-7.689,17.14-17.14V123.3C379.299,113.848,371.611,106.16,362.159,106.16z M247.706,212.319H149.84
			c-0.305,0-0.553-0.248-0.553-0.553V123.3c0-0.305,0.248-0.553,0.553-0.553h97.866V212.319z M362.712,211.766
			c0,0.305-0.248,0.553-0.553,0.553h-97.866v-89.572h97.866c0.305,0,0.553,0.248,0.553,0.553V211.766z"/>
	</g>
</g>
<g>
	<g>
		<path d="M282.539,70.773h-53.08c-4.58,0-8.294,3.713-8.294,8.294s3.713,8.294,8.294,8.294h53.08c4.58,0,8.294-3.713,8.294-8.294
			S287.12,70.773,282.539,70.773z"/>
	</g>
</g>
<g>
	<g>
		<path d="M158.687,70.773c-4.58,0-8.294,3.713-8.294,8.294s3.713,8.294,8.294,8.294h0.089c4.58,0,8.249-3.713,8.249-8.294
			S163.267,70.773,158.687,70.773z"/>
	</g>
</g>
<g>
	<g>
		<path d="M353.312,70.773c-4.58,0-8.294,3.713-8.294,8.294s3.713,8.294,8.294,8.294h0.089c4.58,0,8.249-3.713,8.249-8.294
			S357.893,70.773,353.312,70.773z"/>
	</g>
</g>
<g>
	<g>
		<path d="M158.686,283.092c-14.329,0-25.987,11.658-25.987,25.987s11.658,25.987,25.987,25.987s25.987-11.658,25.987-25.987
			S173.016,283.092,158.686,283.092z M158.686,318.479c-5.183,0-9.4-4.216-9.4-9.4s4.217-9.4,9.4-9.4c5.183,0,9.4,4.216,9.4,9.4
			S163.87,318.479,158.686,318.479z"/>
	</g>
</g>
<g>
	<g>
		<path d="M158.686,353.865c-9.451,0-17.14,7.689-17.14,17.14s7.69,17.14,17.14,17.14c9.452,0,17.14-7.689,17.14-17.14
			S168.138,353.865,158.686,353.865z"/>
	</g>
</g>
<g>
	<g>
		<path d="M353.312,283.092c-14.329,0-25.987,11.658-25.987,25.987s11.658,25.987,25.987,25.987s25.987-11.658,25.987-25.987
			S367.642,283.092,353.312,283.092z M353.312,318.479c-5.183,0-9.4-4.216-9.4-9.4s4.217-9.4,9.4-9.4c5.183,0,9.4,4.216,9.4,9.4
			S358.497,318.479,353.312,318.479z"/>
	</g>
</g>
<g>
	<g>
		<path d="M353.312,353.865c-9.451,0-17.14,7.689-17.14,17.14s7.689,17.14,17.14,17.14c9.452,0,17.14-7.689,17.14-17.14
			S362.764,353.865,353.312,353.865z"/>
	</g>
</g>
<g>
	<g>
		<path d="M300.233,318.479h-88.466c-4.58,0-8.294,3.713-8.294,8.294c0,4.58,3.713,8.294,8.294,8.294h88.466
			c4.58,0,8.294-3.713,8.294-8.294C308.526,322.192,304.814,318.479,300.233,318.479z"/>
	</g>
</g>
<g>
	<g>
		<path d="M264.846,380.405h-17.693c-4.58,0-8.294,3.713-8.294,8.294c0,4.58,3.713,8.294,8.294,8.294h17.693
			c4.58,0,8.294-3.713,8.294-8.294C273.14,384.119,269.428,380.405,264.846,380.405z"/>
	</g>
</g>
<g>
	<g>
		<path d="M300.234,283.092h-88.467c-4.58,0-8.294,3.713-8.294,8.294c0,4.58,3.713,8.294,8.294,8.294h88.467
			c4.58,0,8.294-3.713,8.294-8.294C308.527,286.806,304.815,283.092,300.234,283.092z"/>
	</g>
</g>
<g>
</g>
<g>
</g>
<g>
</g>
<g>
</g>
<g>
</g>
<g>
</g>
<g>
</g>
<g>
</g>
<g>
</g>
<g>
</g>
<g>
</g>
<g>
</g>
<g>
</g>
<g>
</g>
<g>
</g>
</svg>
